<svg width="8" height="8" viewBox="0 0 8 8" fill="none" xmlns="http://www.w3.org/2000/svg">
<path fill-rule="evenodd" clip-rule="evenodd" d="M5.39174 4L7.70886 1.68287C8.09767 1.29406 8.09561 0.673024 7.71129 0.288707C7.3243 -0.0982896 6.70279 -0.0945216 6.31713 0.291138L4 2.60826L1.68287 0.291138C1.29406 -0.0976714 0.673024 -0.0956102 0.288707 0.288707C-0.0982896 0.675703 -0.0945216 1.29721 0.291138 1.68287L2.60826 4L0.291138 6.31713C-0.0976714 6.70594 -0.0956102 7.32698 0.288707 7.71129C0.675703 8.09829 1.29721 8.09452 1.68287 7.70886L4 5.39174L6.31713 7.70886C6.70594 8.09767 7.32698 8.09561 7.71129 7.71129C8.09829 7.3243 8.09452 6.70279 7.70886 6.31713L5.39174 4Z" fill="white"/>
</svg>
